{"accessors":[{"bufferView":3,"componentType":5126,"count":2470,"max":[3.232858180999756,6.001616477966309,3.9597973823547363],"min":[-3.232858657836914,-6.001616477966309,-3.9597976207733154],"type":"VEC3"},{"bufferView":3,"byteOffset":29640,"componentType":5126,"count":2470,"max":[1,1,1],"min":[-1,-1,-1],"type":"VEC3"},{"bufferView":2,"componentType":5126,"count":2470,"max":[0.9899060130119324,0.9900000095367432],"min":[0.010094000026583672,0.009999999776482582],"type":"VEC2"},{"bufferView":1,"componentType":5125,"count":9792,"type":"SCALAR"},{"bufferView":5,"componentType":5126,"count":17,"max":[100,0.36839559674263,0.0000010086275779030984,0,0.2627755105495453,100,0.6860209107398987,0,6.559591838595225e-7,0.7008635997772217,100,0,2.449186325073242,2.0418198108673096,1.9142862558364868,1],"min":[0.9296691417694092,-0.3610039949417114,-2.963159886348876e-7,0,-0.2626597285270691,-0.7275819182395935,-0.7008633613586426,0,-0.2581943869590759,-0.6860208511352539,-0.7275819182395935,0,-2.5062901973724365,-3.871478796005249,-1.9052164554595947,1],"type":"MAT4"},{"bufferView":0,"componentType":5123,"count":2470,"type":"VEC4"},{"bufferView":4,"componentType":5126,"count":2470,"max":[1,0.4999363124370575,0.0228656567633152,0],"min":[0.5000636577606201,0,0,0],"type":"VEC4"},{"bufferView":6,"componentType":5126,"count":11,"max":[1.6666666269302368],"min":[0],"type":"SCALAR"},{"bufferView":7,"componentType":5126,"count":11,"max":[2.5961355731851654e-8,2.1761727333068848,-1.422887319080246e-8],"min":[2.5961355731851654e-8,2.1761727333068848,-1.42288749671593e-8],"type":"VEC3"},{"bufferView":6,"byteOffset":44,"componentType":5126,"count":78,"max":[1.6666666269302368],"min":[0],"type":"SCALAR"},{"bufferView":8,"componentType":5126,"count":78,"max":[0.6920771598815918,7.949653024752479e-8,4.312669332762198e-8,0.9973783493041992],"min":[0.07236295193433762,6.678320119135606e-8,-9.401584399881813e-9,0.7218235731124878],"type":"VEC4"},{"bufferView":6,"byteOffset":356,"componentType":5126,"count":53,"max":[1.6666666269302368],"min":[0],"type":"SCALAR"},{"bufferView":7,"byteOffset":132,"componentType":5126,"count":53,"max":[-0.8115595579147339,-0.1792503446340561,0.6857467293739319],"min":[-0.8115595579147339,-0.1792503446340561,0.2131257951259613],"type":"VEC3"},{"bufferView":6,"byteOffset":568,"componentType":5126,"count":1,"max":[0],"min":[0],"type":"SCALAR"},{"bufferView":7,"byteOffset":768,"componentType":5126,"count":1,"max":[1,1.0000003576278687,0.9999998807907104],"min":[1,1.0000003576278687,0.9999998807907104],"type":"VEC3"},{"bufferView":6,"byteOffset":572,"componentType":5126,"count":81,"max":[1.6666666269302368],"min":[0],"type":"SCALAR"},{"bufferView":8,"byteOffset":1248,"componentType":5126,"count":81,"max":[0.9443272948265076,3.576272433747363e-7,1.1934495169896309e-8,0.9063101410865784],"min":[-0.8601698875427246,-3.5718301205633907e-7,-1.9175109855495975e-7,-0.4957275092601776],"type":"VEC4"},{"bufferView":6,"byteOffset":896,"componentType":5126,"count":5,"max":[1.6666666269302368],"min":[0],"type":"SCALAR"},{"bufferView":7,"byteOffset":780,"componentType":5126,"count":5,"max":[-7.312810623716359e-8,2.250020742416382,1.8697720705063148e-8],"min":[-7.312810623716359e-8,2.250020742416382,1.869771892870631e-8],"type":"VEC3"},{"bufferView":6,"byteOffset":916,"componentType":5126,"count":78,"max":[1.6666666269302368],"min":[0],"type":"SCALAR"},{"bufferView":8,"byteOffset":2544,"componentType":5126,"count":78,"max":[0.6784672737121582,1.7188256151712267e-8,1.0010755779887859e-8,0.9996016025543213],"min":[0.02822514809668064,1.3972221601932233e-8,-1.6432214478001583e-9,0.7346305847167969],"type":"VEC4"},{"bufferView":6,"byteOffset":1228,"componentType":5126,"count":65,"max":[1.6666666269302368],"min":[0],"type":"SCALAR"},{"bufferView":7,"byteOffset":840,"componentType":5126,"count":65,"max":[0.8909239172935486,0.22294190526008606,0.6956204175949097],"min":[0.8909239172935486,-0.27522915601730347,0.0957554429769516],"type":"VEC3"},{"bufferView":6,"byteOffset":1488,"componentType":5126,"count":72,"max":[1.6666666269302368],"min":[0],"type":"SCALAR"},{"bufferView":8,"byteOffset":3792,"componentType":5126,"count":72,"max":[0.9541671276092529,2.819967903633369e-8,1.1450082837427544e-7,0.9121114611625671],"min":[-0.8468047976493835,-5.6705253825839463e-8,-1.1920919007479824e-7,-0.49485963582992554],"type":"VEC4"},{"bufferView":6,"byteOffset":1776,"componentType":5126,"count":30,"max":[1.6666666269302368],"min":[0],"type":"SCALAR"},{"bufferView":7,"byteOffset":1620,"componentType":5126,"count":30,"max":[0,2.2814085483551025,5.293955920339377e-23],"min":[0,2.2814085483551025,-5.293955920339377e-23],"type":"VEC3"},{"bufferView":6,"byteOffset":1896,"componentType":5126,"count":1,"max":[0],"min":[0],"type":"SCALAR"},{"bufferView":7,"byteOffset":1980,"componentType":5126,"count":1,"max":[-5.960464477539063e-8,2.3012657165527344,1.3964472600491717e-7],"min":[-5.960464477539063e-8,2.3012657165527344,1.3964472600491717e-7],"type":"VEC3"},{"bufferView":6,"byteOffset":1900,"componentType":5126,"count":78,"max":[1.6666666269302368],"min":[0],"type":"SCALAR"},{"bufferView":8,"byteOffset":4944,"componentType":5126,"count":78,"max":[-0.3368293344974518,0.11131399124860764,-0.14603778719902039,0.9234869480133057],"min":[-0.5958980321884155,0.06291984021663666,-0.17250777781009674,0.7817849516868591],"type":"VEC4"},{"bufferView":6,"byteOffset":2212,"componentType":5126,"count":1,"max":[0],"min":[0],"type":"SCALAR"},{"bufferView":7,"byteOffset":1992,"componentType":5126,"count":1,"max":[1.0000001192092896,1.0000001192092896,1.0000003576278687],"min":[1.0000001192092896,1.0000001192092896,1.0000003576278687],"type":"VEC3"},{"bufferView":6,"byteOffset":2216,"componentType":5126,"count":80,"max":[1.6666666269302368],"min":[0],"type":"SCALAR"},{"bufferView":8,"byteOffset":6192,"componentType":5126,"count":80,"max":[0.9829426407814026,-0.1673116385936737,0.05920301750302315,0.31693339347839355],"min":[0.8956705927848816,-0.18361638486385345,-0.07566146552562714,-0.40503865480422974],"type":"VEC4"},{"bufferView":6,"byteOffset":2536,"componentType":5126,"count":1,"max":[0],"min":[0],"type":"SCALAR"},{"bufferView":7,"byteOffset":2004,"componentType":5126,"count":1,"max":[-2.980232238769531e-7,2.2550923824310303,-1.1106726560683455e-7],"min":[-2.980232238769531e-7,2.2550923824310303,-1.1106726560683455e-7],"type":"VEC3"},{"bufferView":6,"byteOffset":2540,"componentType":5126,"count":1,"max":[0],"min":[0],"type":"SCALAR"},{"bufferView":7,"byteOffset":2016,"componentType":5126,"count":1,"max":[0.9999998211860657,0.9999999403953552,0.9999999403953552],"min":[0.9999998211860657,0.9999999403953552,0.9999999403953552],"type":"VEC3"},{"bufferView":6,"byteOffset":2544,"componentType":5126,"count":77,"max":[1.6666666269302368],"min":[0],"type":"SCALAR"},{"bufferView":8,"byteOffset":7472,"componentType":5126,"count":77,"max":[-0.17359694838523865,-0.03314168378710747,0.184572234749794,0.9667982459068298],"min":[-0.6728072762489319,-0.1284463107585907,0.13662660121917725,0.715657114982605],"type":"VEC4"},{"bufferView":6,"byteOffset":2852,"componentType":5126,"count":81,"max":[1.6666666269302368],"min":[0],"type":"SCALAR"},{"bufferView":8,"byteOffset":8704,"componentType":5126,"count":81,"max":[0.9823036789894104,0.18748058378696442,0.09545055776834488,0.5017647743225098],"min":[-0.8444327712059021,-0.16121160984039307,-0.09579294174909592,-0.49997255206108093],"type":"VEC4"},{"bufferView":6,"byteOffset":3176,"componentType":5126,"count":33,"max":[1.6666666269302368],"min":[0],"type":"SCALAR"},{"bufferView":7,"byteOffset":2028,"componentType":5126,"count":33,"max":[0,2.2814085483551025,5.293955920339377e-23],"min":[0,2.2814085483551025,-5.293955920339377e-23],"type":"VEC3"},{"bufferView":6,"byteOffset":3308,"componentType":5126,"count":81,"max":[1.6666666269302368],"min":[0],"type":"SCALAR"},{"bufferView":7,"byteOffset":2424,"componentType":5126,"count":81,"max":[0,1.0587911840678754e-22,0.41895246505737305],"min":[0,0,-0.3363797664642334],"type":"VEC3"}],"animations":[{"channels":[{"sampler":0,"target":{"node":11,"path":"translation"}},{"sampler":1,"target":{"node":11,"path":"rotation"}},{"sampler":2,"target":{"node":10,"path":"translation"}},{"sampler":3,"target":{"node":10,"path":"scale"}},{"sampler":4,"target":{"node":10,"path":"rotation"}},{"sampler":5,"target":{"node":14,"path":"translation"}},{"sampler":6,"target":{"node":14,"path":"rotation"}},{"sampler":7,"target":{"node":13,"path":"translation"}},{"sampler":8,"target":{"node":13,"path":"rotation"}},{"sampler":9,"target":{"node":18,"path":"translation"}},{"sampler":10,"target":{"node":21,"path":"translation"}},{"sampler":11,"target":{"node":21,"path":"rotation"}},{"sampler":12,"target":{"node":20,"path":"scale"}},{"sampler":13,"target":{"node":20,"path":"rotation"}},{"sampler":14,"target":{"node":24,"path":"translation"}},{"sampler":15,"target":{"node":24,"path":"scale"}},{"sampler":16,"target":{"node":24,"path":"rotation"}},{"sampler":17,"target":{"node":23,"path":"rotation"}},{"sampler":18,"target":{"node":17,"path":"translation"}},{"sampler":19,"target":{"node":16,"path":"translation"}}],"name":"Armature.001|Walk","samplers":[{"input":7,"interpolation":"LINEAR","output":8},{"input":9,"interpolation":"LINEAR","output":10},{"input":11,"interpolation":"LINEAR","output":12},{"input":13,"interpolation":"LINEAR","output":14},{"input":15,"interpolation":"LINEAR","output":16},{"input":17,"interpolation":"LINEAR","output":18},{"input":19,"interpolation":"LINEAR","output":20},{"input":21,"interpolation":"LINEAR","output":22},{"input":23,"interpolation":"LINEAR","output":24},{"input":25,"interpolation":"LINEAR","output":26},{"input":27,"interpolation":"LINEAR","output":28},{"input":29,"interpolation":"LINEAR","output":30},{"input":31,"interpolation":"LINEAR","output":32},{"input":33,"interpolation":"LINEAR","output":34},{"input":35,"interpolation":"LINEAR","output":36},{"input":37,"interpolation":"LINEAR","output":38},{"input":39,"interpolation":"LINEAR","output":40},{"input":41,"interpolation":"LINEAR","output":42},{"input":43,"interpolation":"LINEAR","output":44},{"input":45,"interpolation":"LINEAR","output":46}]}],"asset":{"extras":{"author":"Blender3D (https://sketchfab.com/Blender3D)","license":"CC-BY-4.0 (http://creativecommons.org/licenses/by/4.0/)","source":"https://sketchfab.com/3d-models/the-perfect-steve-rigged-0cffc39bdab04551bde4f8cdfbc52eca","title":"The Perfect Steve Rigged"},"generator":"Sketchfab-12.66.0","version":"2.0"},"bufferViews":[{"buffer":0,"byteLength":19760,"byteStride":8,"name":"shortBufferViews","target":34962},{"buffer":0,"byteLength":39168,"byteOffset":19760,"name":"floatBufferViews","target":34963},{"buffer":0,"byteLength":19760,"byteOffset":58928,"byteStride":8,"name":"floatBufferViews","target":34962},{"buffer":0,"byteLength":59280,"byteOffset":78688,"byteStride":12,"name":"floatBufferViews","target":34962},{"buffer":0,"byteLength":39520,"byteOffset":137968,"byteStride":16,"name":"floatBufferViews","target":34962},{"buffer":0,"byteLength":1088,"byteOffset":177488,"name":"floatBufferViews"},{"buffer":0,"byteLength":3632,"byteOffset":178576,"name":"floatBufferViews"},{"buffer":0,"byteLength":3396,"byteOffset":182208,"byteStride":12,"name":"floatBufferViews"},{"buffer":0,"byteLength":10000,"byteOffset":185604,"byteStride":16,"name":"floatBufferViews"}],"buffers":[{"byteLength":195604,"uri":"data:application/octet-stream;base64,"}],"images":[{"uri":"data:application/octet-stream;base64,"}],"materials":[{"doubleSided":true,"name":"Scene_-_Root","pbrMetallicRoughness":{"baseColorTexture":{"index":0},"metallicFactor":0}}],"meshes":[{"name":"Cube.064_Cube.000__0","primitives":[{"attributes":{"JOINTS_0":5,"NORMAL":1,"POSITION":0,"TEXCOORD_0":2,"WEIGHTS_0":6},"indices":3,"material":0,"mode":4}]}],"nodes":[{"children":[1],"matrix":[1,0,0,0,0,2.220446049250313e-16,-1,0,0,1,2.220446049250313e-16,0,0,0,0,1],"name":"Sketchfab_model"},{"children":[2],"matrix":[1,0,0,0,0,0,1,0,0,-1,0,0,0,0,0,1],"name":"Steve Rigged.fbx"},{"children":[3],"name":"Object_2"},{"children":[4,7,28],"name":"RootNode"},{"children":[5],"name":"Sun","rotation":[0.3034529983997345,0.6082703471183777,0.32741212844848633,0.6562962532043457],"scale":[100,100.00000762939453,100.00000762939453],"translation":[-1185.2100830078125,-1055.96240234375,225.27694702148438]},{"children":[6],"matrix":[1,0,0,0,0,2.220446049250313e-16,1,0,0,-1,2.220446049250313e-16,0,0,0,0,1],"name":"Object_5"},{"name":"Object_6"},{"children":[8],"name":"Armature.001","rotation":[-0.7071068286895752,0,0,0.7071067094802856],"scale":[100,100,100],"translation":[-0.3470917344093323,-204.18197631835938,-0.00003112687045359053]},{"children":[9,27,26],"name":"Object_8"},{"children":[10,13,16],"name":"_rootJoint"},{"children":[11],"name":"Bone.006_00","rotation":[-0.4753459393978119,3.1174801051747636e-7,-1.7121016071541817e-7,0.8797990083694458],"scale":[1,1.0000004768371582,1],"translation":[-0.8115595579147339,-0.1792503446340561,0.2131257951259613]},{"children":[12],"name":"Bone.007_01","rotation":[0.10601980239152908,6.690545006904358e-8,5.5520281705412344e-8,0.9943640232086182],"scale":[1,1,0.9999998807907104],"translation":[1.4275713056122186e-8,2.176172971725464,-3.711079443746712e-8]},{"name":"Bone.007_end_011","rotation":[2.7755575615628914e-17,1.852884572118782e-22,-5.142787784847508e-39,1],"translation":[2.220446049250313e-16,2.176172971725464,-4.440892098500626e-16]},{"children":[14],"name":"Bone.008_02","rotation":[0.9211258292198181,-4.640398998390083e-8,1.0980675568816878e-7,-0.3892650008201599],"scale":[1,1,1.0000001192092896],"translation":[0.8909238576889038,0.1839333176612854,0.43361881375312805]},{"children":[15],"name":"Bone.009_03","rotation":[0.15812769532203674,1.4458970021280493e-8,8.331177525633393e-9,0.9874186515808105],"scale":[1,1,1.0000001192092896],"translation":[-7.860528228320618e-8,2.250020742416382,1.8697704717851593e-8]},{"name":"Bone.009_end_012","rotation":[2.7755575615628914e-17,1.3234889800848443e-23,-3.6734198463196485e-40,1],"translation":[2.220446049250313e-16,2.250020980834961,0]},{"children":[17],"name":"Bone_04","rotation":[0.7071068286895752,0,0,0.7071067094802856],"translation":[0,-1.0587911840678754e-22,-0.028308339416980743]},{"children":[18,20,23],"name":"Bone.001_05","translation":[0,2.2814085483551025,3.375077994860476e-14]},{"children":[19],"name":"Bone.010_06","translation":[0,2.2814085483551025,0]},{"name":"Bone.010_end_013","translation":[0,3.243460178375244,0]},{"children":[21],"name":"Bone.003_07","rotation":[0.9310515522956848,-0.17392069101333618,0.05890140309929848,0.3153180181980133],"scale":[1,0.9999998807907104,1],"translation":[-1.6149494647979736,2.2845141887664795,0.0003521752078086138]},{"children":[22],"name":"Bone.004_08","rotation":[-0.5958979725837708,0.11131396889686584,-0.14603780210018158,0.7817850112915039],"scale":[0.9999998807907104,0.9999998211860657,0.9999999403953552],"translation":[-1.1920928955078125e-7,2.3012657165527344,2.224106765424949e-7]},{"name":"Bone.004_end_014","rotation":[-2.7755575615628914e-17,1.3234889800848443e-23,-2.6469779601696886e-23,1],"translation":[0,2.146078586578369,-1.1102230246251565e-16]},{"children":[24],"name":"Bone.002_09","rotation":[0.8457602262496948,0.16146501898765564,0.09536517411470413,-0.49952396750450134],"scale":[1.0000001192092896,1.0000003576278687,1.0000005960464478],"translation":[1.6789931058883667,2.280254602432251,-0.002001894637942314]},{"children":[25],"name":"Bone.005_010","rotation":[-0.3888067901134491,-0.07422756403684616,0.17220784723758698,0.902033269405365],"scale":[0.9999997019767761,0.9999998807907104,0.9999998807907104],"translation":[-1.1920928955078125e-7,2.255092144012451,4.0316785998584237e-7]},{"name":"Bone.005_end_015","rotation":[6.938893903907228e-17,3.6734198463196485e-39,5.293955920339377e-23,1],"translation":[0,2.0964903831481934,0]},{"matrix":[100.00000000005116,3.679457651376786e-12,1.6307940241266916e-13,0,1.6308001454124722e-13,-0.00001668281916727927,-99.99999895228655,0,-3.679457536431179e-12,99.99999761547781,-0.000016682818944261882,0,-0.000025397529668680363,-7.356932485436118e-7,-0.000021178371099495052,1],"name":"Object_26"},{"mesh":0,"name":"Object_27","skin":0},{"name":"Cube.064_Cube.000","rotation":[-0.7071068286895752,-1.0687617782965952e-14,-8.013709892545971e-16,0.7071067094802856],"scale":[100,100,100],"translation":[-0.00001832377165555954,3.9968028886505635e-12,-0.00003988353637396358]}],"samplers":[{"magFilter":9729,"minFilter":9987,"wrapS":10497,"wrapT":10497}],"scene":0,"scenes":[{"name":"Sketchfab_Scene","nodes":[0]}],"skins":[{"inverseBindMatrices":4,"joints":[9,10,11,12,13,14,15,16,17,18,19,20,21,22,23,24,25],"skeleton":9}],"textures":[{"sampler":0,"source":0}]}